<?xml version="1.0" encoding="UTF-8"?><svg id="Layer_2" xmlns="http://www.w3.org/2000/svg" viewBox="0 0 587.47 148.46"><defs><style>.cls-1{letter-spacing:0em;}.cls-2{letter-spacing:-.02em;}.cls-3{fill:none;stroke:#22376b;stroke-miterlimit:10;stroke-width:2px;}.cls-4{letter-spacing:-.02em;}.cls-5{fill:#ed9974;font-family:PlayfairDisplay-Italic, 'Playfair Display';font-size:38.71px;font-style:italic;font-variation-settings:'wght' 400;}.cls-6{font-family:MulishRoman-Medium, Mulish;font-size:36.56px;font-variation-settings:'wght' 500;font-weight:500;}.cls-6,.cls-7{fill:#22376b;}.cls-8{fill:#f79a7a;}.cls-9{letter-spacing:0em;}.cls-10{letter-spacing:-.02em;}</style></defs><g id="Layer_1-2"><path class="cls-7" d="m28.03,80.98V9.07H0V0h66.97v9.07h-28.14v71.91h-10.8Z"/><path class="cls-7" d="m94.65,82.02c-9.19,0-16.45-2.64-21.77-7.93-5.32-5.28-7.98-12.56-7.98-21.82,0-6.13,1.17-11.43,3.5-15.91,2.33-4.48,5.57-7.96,9.71-10.45,4.14-2.49,8.96-3.73,14.47-3.73s9.76,1.13,13.44,3.39c3.68,2.26,6.47,5.46,8.39,9.59,1.91,4.13,2.87,9.04,2.87,14.7v3.45h-44.22v-6.2h37.1l-1.95,1.49c0-5.97-1.32-10.61-3.96-13.9-2.64-3.29-6.53-4.94-11.66-4.94-5.59,0-9.92,1.94-12.98,5.8-3.06,3.87-4.59,9.13-4.59,15.79v1.03c0,7.05,1.74,12.37,5.23,15.97,3.48,3.6,8.33,5.4,14.53,5.4,3.45,0,6.66-.5,9.65-1.49,2.99-.99,5.86-2.64,8.61-4.94l3.45,7.24c-2.6,2.37-5.84,4.21-9.71,5.51-3.87,1.3-7.91,1.95-12.12,1.95Z"/><path class="cls-7" d="m130.83,80.98v-43.65c0-2.3-.06-4.65-.17-7.06-.11-2.41-.33-4.77-.63-7.06h10.11l1.26,14.47-1.72.11c.76-3.52,2.09-6.45,3.96-8.79,1.88-2.33,4.13-4.06,6.78-5.17,2.64-1.11,5.38-1.67,8.21-1.67,1.22,0,2.26.04,3.1.12.84.08,1.68.27,2.53.57l-.23,9.3c-1.15-.46-2.2-.75-3.16-.86-.96-.11-2.12-.17-3.5-.17-3.37,0-6.26.77-8.67,2.3-2.41,1.53-4.25,3.56-5.51,6.09-1.26,2.53-1.9,5.25-1.9,8.16v33.31h-10.45Z"/><path class="cls-7" d="m173.33,80.98v-43.65c0-2.3-.06-4.65-.17-7.06-.11-2.41-.33-4.77-.63-7.06h10.11l1.26,14.47-1.72.11c.76-3.52,2.09-6.45,3.96-8.79,1.88-2.33,4.13-4.06,6.78-5.17,2.64-1.11,5.38-1.67,8.21-1.67,1.22,0,2.26.04,3.1.12.84.08,1.68.27,2.53.57l-.23,9.3c-1.15-.46-2.2-.75-3.16-.86-.96-.11-2.12-.17-3.5-.17-3.37,0-6.26.77-8.67,2.3-2.41,1.53-4.25,3.56-5.51,6.09-1.26,2.53-1.9,5.25-1.9,8.16v33.31h-10.45Z"/><path class="cls-7" d="m237.43,82.02c-5.05,0-9.5-1.19-13.32-3.56-3.83-2.37-6.82-5.82-8.96-10.34-2.15-4.52-3.22-9.88-3.22-16.08s1.07-11.54,3.22-16.02c2.14-4.48,5.13-7.91,8.96-10.28,3.83-2.37,8.27-3.56,13.32-3.56s9.59,1.28,13.38,3.85c3.79,2.57,6.3,6.07,7.52,10.51h-1.38l1.26-13.32h10.11c-.23,2.3-.44,4.59-.63,6.89-.19,2.3-.29,4.56-.29,6.78v44.11h-10.45v-13.21h1.26c-1.23,4.37-3.73,7.83-7.52,10.4-3.79,2.57-8.21,3.85-13.27,3.85Zm2.41-8.27c5.21,0,9.38-1.84,12.52-5.51,3.14-3.68,4.71-9.07,4.71-16.2s-1.57-12.48-4.71-16.08c-3.14-3.6-7.31-5.4-12.52-5.4s-9.4,1.8-12.58,5.4c-3.18,3.6-4.77,8.96-4.77,16.08s1.57,12.52,4.71,16.2c3.14,3.68,7.35,5.51,12.64,5.51Z"/><path class="cls-7" d="m316.34,80.98V0h8.27l50.77,67.08h-2.76V0h9.99v80.98h-8.16l-50.77-67.08h2.64v67.08h-9.99Z"/><path class="cls-7" d="m483.35,80.98l-24.7-57.78h11.26l20.1,49.62h-3.22l20.45-49.62h10.68l-24.81,57.78h-9.76Z"/><path class="cls-7" d="m548.6,82.02c-5.05,0-9.5-1.19-13.32-3.56-3.83-2.37-6.82-5.82-8.96-10.34-2.14-4.52-3.22-9.88-3.22-16.08s1.07-11.54,3.22-16.02c2.14-4.48,5.13-7.91,8.96-10.28,3.83-2.37,8.27-3.56,13.32-3.56s9.59,1.28,13.38,3.85c3.79,2.57,6.3,6.07,7.52,10.51h-1.38l1.26-13.32h10.11c-.23,2.3-.44,4.59-.63,6.89-.19,2.3-.29,4.56-.29,6.78v44.11h-10.45v-13.21h1.26c-1.23,4.37-3.73,7.83-7.52,10.4-3.79,2.57-8.21,3.85-13.27,3.85Zm2.41-8.27c5.21,0,9.38-1.84,12.52-5.51,3.14-3.68,4.71-9.07,4.71-16.2s-1.57-12.48-4.71-16.08c-3.14-3.6-7.31-5.4-12.52-5.4s-9.4,1.8-12.58,5.4c-3.18,3.6-4.77,8.96-4.77,16.08s1.57,12.52,4.71,16.2c3.14,3.68,7.35,5.51,12.63,5.51Z"/><path class="cls-8" d="m421.75,23.2c-15.95,0-28.89,12.93-28.89,28.89s12.93,28.89,28.89,28.89,28.89-12.93,28.89-28.89-12.93-28.89-28.89-28.89Zm3.33,47.27c-12.46,0-22.56-10.1-22.56-22.56s10.1-22.56,22.56-22.56,22.56,10.1,22.56,22.56-10.1,22.56-22.56,22.56Z"/><text class="cls-6" transform="translate(18.91 138.59)"><tspan class="cls-10" x="0" y="0">C</tspan><tspan x="24.24" y="0">OUNCELING</tspan></text><line class="cls-3" y1="96.73" x2="579.5" y2="96.73"/><text class="cls-5" transform="translate(268.33 138.92)"><tspan x="0" y="0">Whe</tspan><tspan class="cls-2" x="72.27" y="0">r</tspan><tspan x="87.98" y="0">e </tspan><tspan class="cls-1" x="114.38" y="0">P</tspan><tspan class="cls-9" x="136.79" y="0">eople G</tspan><tspan class="cls-4" x="258.02" y="0">r</tspan><tspan class="cls-9" x="273.73" y="0">ow</tspan></text></g></svg>